<svg xmlns="http://www.w3.org/2000/svg" viewBox="0 0 1200 400" fill="none">
  <defs>
    <linearGradient id="bg" x1="0" y1="0" x2="1" y2="1">
      <stop offset="0%" stop-color="#1a1a1a"/>
      <stop offset="45%" stop-color="#5c1010"/>
      <stop offset="100%" stop-color="#1a1a1a"/>
    </linearGradient>
    <radialGradient id="glow" cx="70%" cy="30%" r="50%">
      <stop offset="0%" stop-color="#ef5350" stop-opacity="0.35"/>
      <stop offset="100%" stop-color="#ef5350" stop-opacity="0"/>
    </radialGradient>
  </defs>
  <rect width="1200" height="400" fill="url(#bg)"/>
  <rect width="1200" height="400" fill="url(#glow)"/>
  <path d="M0 320 Q300 280 600 300 T1200 290 L1200 400 L0 400 Z" fill="#242424" fill-opacity="0.6"/>
  <g transform="translate(900 120) rotate(12)" fill="#ef5350" fill-opacity="0.9">
    <path d="M0 20 L80 0 L70 20 L90 25 L70 30 L80 50 L0 30 L20 25 Z"/>
  </g>
  <g transform="translate(200 80) rotate(-8)" fill="#ffffff" fill-opacity="0.08">
    <path d="M0 15 L60 0 L55 15 L70 18 L55 21 L60 36 L0 21 L12 18 Z"/>
  </g>
</svg>
