<svg xmlns="http://www.w3.org/2000/svg" viewBox="0 0 800 320" fill="none">
  <defs>
    <linearGradient id="vl-bg" x1="0" y1="0" x2="1" y2="1">
      <stop offset="0%" stop-color="#1a1a1a"/>
      <stop offset="50%" stop-color="#6b1515"/>
      <stop offset="100%" stop-color="#1a1a1a"/>
    </linearGradient>
  </defs>
  <rect width="800" height="320" fill="url(#vl-bg)"/>
  <path d="M0 240 Q200 200 400 220 T800 210 L800 320 L0 320 Z" fill="#242424" opacity="0.7"/>
  <path d="M80 200 Q250 120 400 160 T720 130" stroke="#ef5350" stroke-width="2" fill="none" stroke-dasharray="14 10" opacity="0.5"/>
  <g transform="translate(300 75)">
    <path d="M0 40 L160 -10 L130 40 L200 55 L130 70 L160 120 L0 70 L35 55 Z" fill="#ef5350"/>
    <path d="M35 55 L130 40 L130 70 Z" fill="#b71c1c"/>
  </g>
  <circle cx="80" cy="200" r="6" fill="#ef5350" opacity="0.6"/>
  <circle cx="400" cy="160" r="5" fill="#ef5350" opacity="0.5"/>
  <circle cx="720" cy="130" r="6" fill="#ef5350" opacity="0.6"/>
  <text x="60" y="225" fill="#888" font-family="monospace" font-size="11">06:00</text>
  <text x="380" y="185" fill="#888" font-family="monospace" font-size="11">12:30</text>
  <text x="700" y="155" fill="#888" font-family="monospace" font-size="11">18:45</text>
</svg>
