<svg xmlns="http://www.w3.org/2000/svg" viewBox="0 0 800 320" fill="none">
  <defs>
    <linearGradient id="as-bg" x1="0" y1="0" x2="1" y2="1">
      <stop offset="0%" stop-color="#1a1a2e"/>
      <stop offset="100%" stop-color="#1a1a1a"/>
    </linearGradient>
  </defs>
  <rect width="800" height="320" fill="url(#as-bg)"/>
  <rect x="60" y="50" width="280" height="220" rx="14" fill="#252525" stroke="#3a3a3a" stroke-width="1"/>
  <rect x="460" y="50" width="280" height="220" rx="14" fill="#252525" stroke="#3a3a3a" stroke-width="1"/>
  <text x="90" y="85" fill="#ef5350" font-family="sans-serif" font-size="14" font-weight="bold">Tripulantes</text>
  <text x="490" y="85" fill="#ef5350" font-family="sans-serif" font-size="14" font-weight="bold">Vuelos</text>
  <rect x="90" y="105" width="220" height="44" rx="8" fill="#333"/>
  <circle cx="115" cy="127" r="14" fill="#d32f2f" fill-opacity="0.5"/>
  <text x="140" y="132" fill="#ccc" font-family="sans-serif" font-size="13">Pérez · Capitán</text>
  <rect x="90" y="160" width="220" height="44" rx="8" fill="#333"/>
  <circle cx="115" cy="182" r="14" fill="#d32f2f" fill-opacity="0.5"/>
  <text x="140" y="187" fill="#ccc" font-family="sans-serif" font-size="13">Gómez · Copiloto</text>
  <rect x="90" y="215" width="220" height="44" rx="8" fill="#333"/>
  <circle cx="115" cy="237" r="14" fill="#d32f2f" fill-opacity="0.5"/>
  <text x="140" y="242" fill="#ccc" font-family="sans-serif" font-size="13">Ruiz · Cabina</text>
  <rect x="490" y="105" width="220" height="44" rx="8" fill="#333"/>
  <text x="510" y="132" fill="#ccc" font-family="monospace" font-size="13">AV-204 · BOG→MDE</text>
  <rect x="490" y="160" width="220" height="44" rx="8" fill="#333"/>
  <text x="510" y="187" fill="#ccc" font-family="monospace" font-size="13">AV-318 · MDE→CLO</text>
  <rect x="490" y="215" width="220" height="44" rx="8" fill="#333"/>
  <text x="510" y="242" fill="#ccc" font-family="monospace" font-size="13">AV-501 · CLO→BOG</text>
  <path d="M340 127 L460 127" stroke="#ef5350" stroke-width="2" stroke-dasharray="6 4"/>
  <polygon points="455,122 465,127 455,132" fill="#ef5350"/>
  <path d="M340 182 L460 182" stroke="#ef5350" stroke-width="2" stroke-dasharray="6 4"/>
  <polygon points="455,177 465,182 455,187" fill="#ef5350"/>
  <path d="M340 237 L460 237" stroke="#ef5350" stroke-width="2" stroke-dasharray="6 4"/>
  <polygon points="455,232 465,237 455,242" fill="#ef5350"/>
</svg>
