<svg xmlns="http://www.w3.org/2000/svg" viewBox="0 0 800 320" fill="none">
  <defs>
    <linearGradient id="cr-bg" x1="0" y1="0" x2="1" y2="1">
      <stop offset="0%" stop-color="#141820"/>
      <stop offset="100%" stop-color="#1a1a1a"/>
    </linearGradient>
  </defs>
  <rect width="800" height="320" fill="url(#cr-bg)"/>
  <ellipse cx="400" cy="270" rx="300" ry="30" fill="#2a2a2a" fill-opacity="0.6"/>
  <g transform="translate(180 70)">
    <circle cx="80" cy="55" r="38" fill="#3a3a3a"/>
    <rect x="42" y="95" width="76" height="110" rx="12" fill="#1e3a5f"/>
    <rect x="50" y="105" width="60" height="8" fill="#ef5350" fill-opacity="0.6"/>
    <rect x="55" y="120" width="8" height="8" fill="#ffd700" fill-opacity="0.8"/>
    <rect x="70" y="120" width="8" height="8" fill="#ffd700" fill-opacity="0.8"/>
    <rect x="85" y="120" width="8" height="8" fill="#ffd700" fill-opacity="0.8"/>
    <path d="M55 55 Q80 25 105 55" fill="#4a3728"/>
    <rect x="62" y="48" width="36" height="8" rx="2" fill="#1a1a1a"/>
  </g>
  <g transform="translate(420 70)">
    <circle cx="80" cy="55" r="38" fill="#3a3a3a"/>
    <rect x="42" y="95" width="76" height="110" rx="12" fill="#1e3a5f"/>
    <rect x="50" y="105" width="60" height="8" fill="#ef5350" fill-opacity="0.6"/>
    <rect x="55" y="120" width="8" height="8" fill="#ffd700" fill-opacity="0.8"/>
    <rect x="70" y="120" width="8" height="8" fill="#ffd700" fill-opacity="0.8"/>
    <rect x="85" y="120" width="8" height="8" fill="#ffd700" fill-opacity="0.8"/>
    <ellipse cx="80" cy="50" rx="32" ry="28" fill="#5c3d2e"/>
    <rect x="55" y="75" width="50" height="6" rx="2" fill="#1a1a1a"/>
  </g>
  <g transform="translate(340 30)">
    <path d="M0 18 L55 -2 L48 18 L65 22 L48 26 L55 46 L0 26 L14 22 Z" fill="#ef5350" fill-opacity="0.75"/>
  </g>
  <text x="300" y="300" fill="#888" font-family="sans-serif" font-size="13">Capitán · Copiloto · Cabina</text>
</svg>
