<svg xmlns="http://www.w3.org/2000/svg" viewBox="0 0 800 320" fill="none">
  <defs>
    <linearGradient id="ta-bg" x1="0" y1="0" x2="1" y2="1">
      <stop offset="0%" stop-color="#1a2030"/>
      <stop offset="100%" stop-color="#1a1a1a"/>
    </linearGradient>
  </defs>
  <rect width="800" height="320" fill="url(#ta-bg)"/>
  <rect x="100" y="60" width="260" height="200" rx="12" fill="#252525" stroke="#3a3a3a"/>
  <rect x="440" y="60" width="260" height="200" rx="12" fill="#252525" stroke="#3a3a3a"/>
  <text x="130" y="95" fill="#ef5350" font-family="sans-serif" font-size="14" font-weight="bold">Narrow-body</text>
  <text x="470" y="95" fill="#ef5350" font-family="sans-serif" font-size="14" font-weight="bold">Wide-body</text>
  <g transform="translate(130 130) scale(0.7)">
    <path d="M0 40 L100 10 L90 40 L130 50 L90 60 L100 90 L0 60 L20 50 Z" fill="#e8e8e8" fill-opacity="0.8"/>
  </g>
  <g transform="translate(470 125) scale(0.9)">
    <path d="M0 50 L140 10 L120 50 L180 62 L120 74 L140 114 L0 74 L25 62 Z" fill="#e8e8e8" fill-opacity="0.8"/>
  </g>
  <text x="130" y="220" fill="#888" font-family="monospace" font-size="12">A320 · 180 pax</text>
  <text x="470" y="220" fill="#888" font-family="monospace" font-size="12">B787 · 290 pax</text>
</svg>
